<svg width="136" height="48" viewBox="0 0 136 48" fill="none" xmlns="http://www.w3.org/2000/svg">
<path fill-rule="evenodd" clip-rule="evenodd" d="M127.143 10.5542L121.09 29.5182H120.983L114.714 10.5542H106.994V0.000732422H99.3855V38.2493H106.994V11.6763L116.322 36.5358C116.537 37.0714 116.642 37.6608 116.642 38.2493C116.642 39.9651 115.678 41.517 113.697 41.7313C112.197 41.7854 110.698 41.624 109.251 41.4634V47.7326C110.805 47.8922 112.357 48 113.911 48C119.107 48 121.785 46.1777 123.446 41.7313L135.018 10.5542H127.143Z" fill="#D9D9D9"/>
<path fill-rule="evenodd" clip-rule="evenodd" d="M17.4119 10.5543H12.1607V8.89262C12.1607 6.59008 12.965 5.7322 15.0549 5.7322C15.9655 5.7322 16.9289 5.78755 17.8394 5.89432V0.215111C16.5552 0.162216 15.1607 0.000823975 13.8233 0.000823975C7.60755 0.000823975 4.55415 3.48255 4.55415 8.41164V10.5543H0V15.642H4.55415V38.2494H12.1607V15.642H17.4119V10.5543Z" fill="#D9D9D9"/>
<path fill-rule="evenodd" clip-rule="evenodd" d="M90.1145 13.9291H90.0068C88.2939 11.197 85.0787 9.80381 81.8112 9.80381C74.2915 9.80381 70.1991 15.6988 69.6158 22.4652C68.7941 15.5231 64.265 9.80381 56.257 9.80381C48.8713 9.80381 43.551 14.6812 42.3652 21.4941C41.251 14.9979 36.7787 9.80381 29.1476 9.80381C20.7358 9.80381 15.0037 16.1254 15.0037 24.428C15.0037 33.0002 20.4142 38.9997 29.1476 38.9997C35.4145 38.9997 39.9689 36.2691 42.1111 29.6788H35.4145C34.9326 31.3917 32.4694 33.2669 29.4148 33.2669C25.13 33.2669 22.827 31.125 22.6122 26.2503H42.2014C42.9198 33.8386 48.1598 38.9997 56.257 38.9997C62.5256 38.9997 67.079 36.2691 69.2227 29.6788H62.5256C62.0432 31.3917 59.5793 33.2669 56.5268 33.2669C52.2404 33.2669 49.9361 31.125 49.7213 26.2503H69.6456C70.3226 33.1148 74.3761 38.9997 81.9721 38.9997C85.5606 38.9997 88.6148 37.715 90.3817 34.714H90.4887V38.2493H97.7226V0H90.1145V13.9291ZM22.6122 21.4294C22.7731 19.2868 24.0042 15.5359 28.9328 15.5359C32.6296 15.5359 34.2902 17.5708 34.987 21.4294H22.6122ZM49.7213 21.4294C49.8825 19.2868 51.1158 15.5359 56.0422 15.5359C59.7387 15.5359 61.4003 17.5708 62.0961 21.4294H49.7213ZM83.8466 33.2669C79.1318 33.2669 77.151 28.7152 77.151 24.3755C77.151 19.8753 78.8651 15.5359 83.8466 15.5359C88.7749 15.5359 90.3817 19.8219 90.3817 24.3212C90.3817 28.8743 88.83 33.2669 83.8466 33.2669Z" fill="#D9D9D9"/>
</svg>
